<svg width="32" height="32" viewBox="0 0 32 32" fill="none" xmlns="http://www.w3.org/2000/svg">
<path fill-rule="evenodd" clip-rule="evenodd" d="M1.15999 13.6739C1.93332 14.4726 2.87999 14.872 3.99999 14.872C5.11999 14.872 6.06665 14.4726 6.83998 13.6739C7.61331 12.8753 7.99999 11.8976 7.99999 10.7409C7.99999 9.58414 7.61331 8.60645 6.83998 7.80777C6.06665 7.00909 5.11999 6.60975 3.99999 6.60975C2.87999 6.60975 1.93332 7.00909 1.15999 7.80777C0.386661 8.60645 0 9.58414 0 10.7409C0 11.8976 0.386661 12.8753 1.15999 13.6739ZM7.19999 4.13109C7.19999 5.2878 7.58666 6.2655 8.35999 7.06418C9.13332 7.86286 10.08 8.26219 11.2 8.26219C12.32 8.26219 13.2667 7.86286 14.04 7.06418C14.8133 6.2655 15.2 5.2878 15.2 4.13109C15.2 2.97439 14.8133 1.9967 14.04 1.19802C13.2667 0.39934 12.32 0 11.2 0C10.08 0 9.13332 0.39934 8.35999 1.19802C7.58666 1.9967 7.19999 2.97439 7.19999 4.13109ZM16.8 4.13109C16.8 5.2878 17.1867 6.2655 17.96 7.06418C18.7333 7.86286 19.68 8.26219 20.8 8.26219C21.92 8.26219 22.8667 7.86286 23.64 7.06418C24.4133 6.2655 24.8 5.2878 24.8 4.13109C24.8 2.97439 24.4133 1.9967 23.64 1.19802C22.8667 0.39934 21.92 0 20.8 0C19.68 0 18.7333 0.39934 17.96 1.19802C17.1867 1.9967 16.8 2.97439 16.8 4.13109ZM25.16 13.6739C25.9333 14.4726 26.88 14.872 28 14.872C29.12 14.872 30.0667 14.4726 30.84 13.6739C31.6133 12.8753 32 11.8976 32 10.7409C32 9.58414 31.6133 8.60645 30.84 7.80777C30.0667 7.00909 29.12 6.60975 28 6.60975C26.88 6.60975 25.9333 7.00909 25.16 7.80777C24.3867 8.60645 24 9.58414 24 10.7409C24 11.8976 24.3867 12.8753 25.16 13.6739Z" fill="#CA9000"/>
<path d="M7.43644 32C6.23644 32 5.22978 31.5249 4.41645 30.5748C3.60312 29.6246 3.19645 28.5023 3.19645 27.2079C3.19645 25.7758 3.66978 24.5227 4.61645 23.4486C5.56311 22.3745 6.50311 21.3142 7.43644 20.2677C8.20977 19.4139 8.87644 18.4844 9.43644 17.4792C9.99644 16.4739 10.6631 15.5307 11.4364 14.6494C12.0231 13.9333 12.7031 13.3412 13.4764 12.873C14.2498 12.4048 15.0898 12.1707 15.9964 12.1707C16.9031 12.1707 17.7431 12.391 18.5164 12.8317C19.2897 13.2723 19.9697 13.8507 20.5564 14.5668C21.3031 15.4481 21.9631 16.3982 22.5364 17.4172C23.1097 18.4362 23.7831 19.3864 24.5564 20.2677C25.4897 21.3142 26.4297 22.3745 27.3764 23.4486C28.3231 24.5227 28.7964 25.7758 28.7964 27.2079C28.7964 28.5023 28.3897 29.6246 27.5764 30.5748C26.7631 31.5249 25.7564 32 24.5564 32C23.1164 32 21.6897 31.8761 20.2764 31.6282C18.8631 31.3803 17.4364 31.2564 15.9964 31.2564C14.5564 31.2564 13.1298 31.3803 11.7164 31.6282C10.3031 31.8761 8.87644 32 7.43644 32Z" fill="#124B3A"/>
</svg>
