<svg width="240" height="48" viewBox="0 0 240 48" fill="none" xmlns="http://www.w3.org/2000/svg">
<path d="M139.363 16.707C139.35 17.8268 139.24 18.8294 139.031 19.7148C138.836 20.6003 138.549 21.401 138.172 22.1172C137.807 22.8203 137.358 23.4583 136.824 24.0312C136.303 24.5911 135.704 25.1185 135.027 25.6133C133.725 26.5508 132.299 27.2604 130.75 27.7422C129.201 28.2109 127.645 28.4453 126.082 28.4453C125.822 28.4453 125.561 28.4388 125.301 28.4258C125.053 28.4128 124.799 28.3932 124.539 28.3672L123.895 35.4961L123.562 36.1016C123.536 36.1536 123.315 36.2578 122.898 36.4141C122.482 36.5703 121.961 36.7526 121.336 36.9609L120.105 37.3711C119.715 37.5143 119.37 37.6445 119.07 37.7617C118.771 37.8789 118.491 37.9831 118.23 38.0742C117.97 38.1654 117.716 38.2305 117.469 38.2695C117.221 38.3216 116.961 38.3477 116.688 38.3477C116.505 38.3477 116.362 38.3021 116.258 38.2109C116.154 38.1198 116.102 37.944 116.102 37.6836L116.316 34.3438C116.355 33.6797 116.401 33.0156 116.453 32.3516C116.518 31.6745 116.577 30.9062 116.629 30.0469L117 25.3789C117.078 24.4284 117.15 23.4779 117.215 22.5273C117.28 21.5768 117.345 20.6719 117.41 19.8125C117.475 18.9531 117.534 18.1523 117.586 17.4102C117.638 16.6549 117.684 15.9974 117.723 15.4375C117.02 15.5938 116.453 15.7109 116.023 15.7891C115.607 15.8542 115.288 15.8867 115.066 15.8867C114.793 15.8867 114.656 15.7695 114.656 15.5352C114.839 14.8971 115.008 14.2721 115.164 13.6602C115.307 13.1393 115.451 12.6055 115.594 12.0586C115.75 11.4987 115.88 11.0299 115.984 10.6523C116.049 10.418 116.121 10.2422 116.199 10.125C116.29 9.99479 116.401 9.89714 116.531 9.83203C116.674 9.75391 116.85 9.6888 117.059 9.63672C117.28 9.57161 117.547 9.48698 117.859 9.38281C118.107 9.30469 118.452 9.22005 118.895 9.12891C119.35 9.02474 119.865 8.92708 120.438 8.83594C121.023 8.73177 121.655 8.63411 122.332 8.54297C123.009 8.45182 123.693 8.3737 124.383 8.30859C125.086 8.23047 125.776 8.17188 126.453 8.13281C127.13 8.08073 127.768 8.05469 128.367 8.05469C129.852 8.05469 131.258 8.19141 132.586 8.46484C133.914 8.73828 135.079 9.20703 136.082 9.87109C137.085 10.5221 137.879 11.4076 138.465 12.5273C139.064 13.6341 139.363 15.0273 139.363 16.707ZM125.086 22.5664C125.086 22.7096 125.112 22.8398 125.164 22.957C125.216 23.0612 125.359 23.1133 125.594 23.1133C125.958 23.1133 126.388 23.0352 126.883 22.8789C127.391 22.7096 127.892 22.4622 128.387 22.1367C128.895 21.8112 129.363 21.4076 129.793 20.9258C130.223 20.444 130.548 19.8776 130.77 19.2266C130.861 18.9661 130.932 18.6341 130.984 18.2305C131.049 17.8268 131.082 17.3516 131.082 16.8047C131.082 15.8932 130.763 15.2227 130.125 14.793C129.5 14.3633 128.68 14.1484 127.664 14.1484C127.495 14.1484 127.299 14.1615 127.078 14.1875C126.87 14.2005 126.668 14.2331 126.473 14.2852C126.29 14.3372 126.134 14.4023 126.004 14.4805C125.874 14.5456 125.802 14.6367 125.789 14.7539L125.75 15.1836C125.737 15.3529 125.711 15.6328 125.672 16.0234C125.633 16.401 125.587 16.8372 125.535 17.332C125.496 17.8268 125.451 18.3477 125.398 18.8945C125.359 19.4414 125.314 19.9622 125.262 20.457C125.223 20.9518 125.184 21.388 125.145 21.7656C125.118 22.1432 125.099 22.4102 125.086 22.5664ZM152.766 15.2031C154.003 15.2031 155.122 15.4375 156.125 15.9062C157.141 16.362 158.007 16.9609 158.723 17.7031C159.452 18.4323 160.012 19.2526 160.402 20.1641C160.793 21.0755 160.988 21.987 160.988 22.8984C160.988 23.7057 160.741 24.5195 160.246 25.3398C159.751 26.1471 159.055 26.8763 158.156 27.5273C157.271 28.1784 156.203 28.7057 154.953 29.1094C153.703 29.513 152.329 29.7148 150.832 29.7148C150.051 29.7148 149.23 29.6367 148.371 29.4805C148.423 30.0404 148.586 30.5221 148.859 30.9258C149.133 31.3294 149.478 31.6615 149.895 31.9219C150.311 32.1823 150.78 32.3776 151.301 32.5078C151.835 32.625 152.382 32.6836 152.941 32.6836C153.566 32.6836 154.165 32.6315 154.738 32.5273C155.324 32.4102 155.884 32.2604 156.418 32.0781C156.952 31.8958 157.466 31.694 157.961 31.4727C158.456 31.2513 158.924 31.0299 159.367 30.8086C159.484 30.7826 159.582 30.763 159.66 30.75C159.751 30.724 159.836 30.7109 159.914 30.7109C159.914 30.7109 159.908 30.8151 159.895 31.0234C159.895 31.2318 159.895 31.5247 159.895 31.9023C159.895 32.2799 159.888 32.7357 159.875 33.2695C159.875 33.8034 159.868 34.3958 159.855 35.0469C159.895 35.112 159.921 35.1771 159.934 35.2422C159.947 35.3073 159.953 35.3594 159.953 35.3984C159.953 35.5547 159.81 35.724 159.523 35.9062C159.237 36.0885 158.859 36.2773 158.391 36.4727C157.935 36.668 157.408 36.8568 156.809 37.0391C156.223 37.2214 155.624 37.3841 155.012 37.5273C154.4 37.6836 153.807 37.8008 153.234 37.8789C152.661 37.9701 152.16 38.0156 151.73 38.0156C150.324 38.0156 148.957 37.7682 147.629 37.2734C146.314 36.7917 145.142 36.0951 144.113 35.1836C143.098 34.2721 142.284 33.1654 141.672 31.8633C141.06 30.5612 140.754 29.0964 140.754 27.4688C140.754 25.763 141.047 24.168 141.633 22.6836C142.219 21.1862 143.039 19.8841 144.094 18.7773C145.161 17.6706 146.431 16.7982 147.902 16.1602C149.374 15.5221 150.995 15.2031 152.766 15.2031ZM152.531 20.3984C151.997 20.3984 151.503 20.5156 151.047 20.75C150.604 20.9714 150.194 21.2969 149.816 21.7266C149.452 22.1432 149.133 22.651 148.859 23.25C148.586 23.8359 148.365 24.487 148.195 25.2031C149.536 24.9688 150.65 24.7214 151.535 24.4609C152.421 24.2005 153.13 23.9401 153.664 23.6797C154.198 23.4062 154.576 23.1393 154.797 22.8789C155.018 22.6055 155.129 22.3451 155.129 22.0977C155.129 21.8633 155.038 21.6419 154.855 21.4336C154.686 21.2253 154.471 21.043 154.211 20.8867C153.951 20.7305 153.664 20.6133 153.352 20.5352C153.052 20.444 152.779 20.3984 152.531 20.3984ZM174.957 21.9414C174.775 23.3086 174.599 24.6758 174.43 26.043C174.273 27.3971 174.176 28.6667 174.137 29.8516C174.137 30.3594 174.176 30.7826 174.254 31.1211C174.332 31.4596 174.443 31.7266 174.586 31.9219C174.742 32.1172 174.924 32.2604 175.133 32.3516C175.341 32.4297 175.576 32.4688 175.836 32.4688C176.253 32.4688 176.708 32.4102 177.203 32.293C177.698 32.1628 178.193 32 178.688 31.8047C178.844 31.7396 178.974 31.694 179.078 31.668C179.195 31.6289 179.293 31.6094 179.371 31.6094C179.501 31.6094 179.586 31.668 179.625 31.7852C179.677 31.9023 179.723 32.1107 179.762 32.4102C179.814 32.6966 179.885 33.0872 179.977 33.582C180.068 34.0768 180.217 34.7018 180.426 35.457C180.439 35.5221 180.445 35.5807 180.445 35.6328C180.458 35.6719 180.465 35.7109 180.465 35.75C180.465 35.9323 180.393 36.0625 180.25 36.1406C180.12 36.2188 179.898 36.3099 179.586 36.4141C179.052 36.5964 178.486 36.7852 177.887 36.9805C177.301 37.1628 176.715 37.332 176.129 37.4883C175.556 37.6445 175.003 37.7682 174.469 37.8594C173.935 37.9635 173.466 38.0156 173.062 38.0156C170.888 38.0156 169.299 37.4753 168.297 36.3945C167.307 35.3138 166.812 33.6667 166.812 31.4531C166.812 31.0755 166.826 30.6914 166.852 30.3008C166.878 29.8971 166.91 29.4805 166.949 29.0508C167.079 27.7487 167.19 26.5182 167.281 25.3594C167.385 24.1875 167.49 23.0677 167.594 22H165.543C164.84 22 164.332 21.974 164.02 21.9219C163.707 21.8568 163.551 21.7331 163.551 21.5508C163.551 21.4987 163.616 21.362 163.746 21.1406C163.876 20.9062 164.039 20.6328 164.234 20.3203C164.443 19.9948 164.664 19.6497 164.898 19.2852C165.133 18.9206 165.354 18.582 165.562 18.2695C165.784 17.944 165.973 17.6641 166.129 17.4297C166.285 17.1953 166.383 17.0521 166.422 17H167.809C167.926 16.0104 168.017 15.1836 168.082 14.5195C168.16 13.8424 168.219 13.2826 168.258 12.8398C168.31 12.3971 168.355 12.0586 168.395 11.8242C168.434 11.5768 168.473 11.3945 168.512 11.2773C168.564 11.1602 168.622 11.0885 168.688 11.0625C168.766 11.0234 168.863 10.9909 168.98 10.9648C169.566 10.8477 170.133 10.7435 170.68 10.6523C171.227 10.5482 171.773 10.444 172.32 10.3398C172.867 10.2357 173.421 10.1185 173.98 9.98828C174.553 9.84505 175.146 9.68229 175.758 9.5C175.797 9.5 175.823 9.5 175.836 9.5C175.849 9.48698 175.875 9.48047 175.914 9.48047C176.07 9.48047 176.148 9.53255 176.148 9.63672V9.67578C176.083 10.3919 175.979 11.388 175.836 12.6641C175.706 13.9401 175.556 15.3854 175.387 17H180.621C180.725 17 180.823 17.0391 180.914 17.1172C181.018 17.1823 181.07 17.2995 181.07 17.4688C181.07 17.5339 180.992 17.7682 180.836 18.1719C180.68 18.5755 180.458 19.1029 180.172 19.7539L179.469 21.3359C179.378 21.5312 179.28 21.6745 179.176 21.7656C179.085 21.8568 178.889 21.9154 178.59 21.9414H174.957Z" fill="#124B3A"/>
<path d="M185.879 36.7461C185.618 36.681 185.443 36.5833 185.352 36.4531C185.26 36.3099 185.215 36.1536 185.215 35.9844C185.215 35.9453 185.215 35.9193 185.215 35.9062C185.228 35.8932 185.234 35.8672 185.234 35.8281C185.339 34.4219 185.449 32.9505 185.566 31.4141C185.697 29.8646 185.833 28.2956 185.977 26.707C186.12 25.1055 186.263 23.5104 186.406 21.9219C186.549 20.3333 186.693 18.7904 186.836 17.293H186.816C186.764 17.293 186.615 17.3385 186.367 17.4297C186.133 17.5078 185.859 17.599 185.547 17.7031C185.247 17.7943 184.941 17.8789 184.629 17.957C184.316 18.0352 184.062 18.0742 183.867 18.0742C183.698 18.0742 183.574 18.0091 183.496 17.8789C183.431 17.7487 183.398 17.6055 183.398 17.4492C183.398 17.332 183.418 17.2214 183.457 17.1172C183.809 16.1016 184.173 15.151 184.551 14.2656C184.928 13.3802 185.306 12.4688 185.684 11.5312C186.673 10.9974 187.702 10.5352 188.77 10.1445C189.837 9.74089 190.911 9.40885 191.992 9.14844C193.086 8.875 194.173 8.67318 195.254 8.54297C196.335 8.39974 197.383 8.32812 198.398 8.32812C199.818 8.32812 201.152 8.47786 202.402 8.77734C203.665 9.07682 204.759 9.53255 205.684 10.1445C206.621 10.7435 207.357 11.5052 207.891 12.4297C208.438 13.3411 208.711 14.4154 208.711 15.6523C208.711 16.1862 208.594 16.7005 208.359 17.1953C208.125 17.6901 207.819 18.1654 207.441 18.6211C207.077 19.0638 206.667 19.4805 206.211 19.8711C205.755 20.2487 205.306 20.5938 204.863 20.9062C205.488 21.362 206.048 21.7786 206.543 22.1562C207.051 22.5208 207.48 22.9049 207.832 23.3086C208.184 23.7122 208.451 24.168 208.633 24.6758C208.815 25.1706 208.906 25.776 208.906 26.4922C208.906 27.5859 208.711 28.6341 208.32 29.6367C207.943 30.6263 207.415 31.5508 206.738 32.4102C206.074 33.2565 205.28 34.0247 204.355 34.7148C203.444 35.4049 202.448 35.9974 201.367 36.4922C200.299 36.974 199.167 37.3451 197.969 37.6055C196.784 37.8789 195.586 38.0156 194.375 38.0156C193.932 38.0156 193.34 37.9701 192.598 37.8789C191.855 37.7878 191.074 37.6771 190.254 37.5469C189.447 37.4297 188.646 37.293 187.852 37.1367C187.07 36.9935 186.413 36.8633 185.879 36.7461ZM194.883 15.3203C194.635 16.8568 194.427 18.4193 194.258 20.0078C194.089 21.5833 193.939 23.1198 193.809 24.6172C193.691 26.1016 193.587 27.5143 193.496 28.8555C193.405 30.1966 193.314 31.3945 193.223 32.4492C193.743 32.4492 194.303 32.4232 194.902 32.3711C195.514 32.306 196.12 32.2018 196.719 32.0586C197.318 31.9154 197.897 31.7331 198.457 31.5117C199.03 31.2773 199.531 30.9909 199.961 30.6523C200.391 30.3138 200.736 29.9167 200.996 29.4609C201.257 28.9922 201.387 28.4583 201.387 27.8594C201.387 27.4948 201.276 27.1758 201.055 26.9023C200.833 26.6159 200.547 26.375 200.195 26.1797C199.857 25.9714 199.479 25.8021 199.062 25.6719C198.646 25.5286 198.236 25.418 197.832 25.3398C197.441 25.2487 197.077 25.1836 196.738 25.1445C196.413 25.0924 196.165 25.0534 195.996 25.0273C195.814 25.0013 195.697 24.9362 195.645 24.832C195.592 24.7279 195.566 24.5977 195.566 24.4414C195.566 24.2721 195.671 24.0182 195.879 23.6797C196.087 23.3411 196.374 22.8789 196.738 22.293L197.559 20.9844C197.91 20.8542 198.288 20.6914 198.691 20.4961C199.108 20.3008 199.492 20.0794 199.844 19.832C200.195 19.5716 200.488 19.2852 200.723 18.9727C200.957 18.6471 201.074 18.2956 201.074 17.918C201.074 16.8503 200.84 16.0365 200.371 15.4766C199.915 14.9036 199.251 14.6172 198.379 14.6172C197.389 14.6172 196.224 14.8516 194.883 15.3203ZM212.348 24.3828C212.348 22.8854 212.517 21.4531 212.855 20.0859C213.207 18.7057 213.702 17.4232 214.34 16.2383C214.978 15.0404 215.746 13.9596 216.645 12.9961C217.556 12.0195 218.572 11.1862 219.691 10.4961C220.811 9.79297 222.022 9.2526 223.324 8.875C224.639 8.4974 226.02 8.30859 227.465 8.30859C228.611 8.30859 229.613 8.38672 230.473 8.54297C231.345 8.6862 232.1 8.875 232.738 9.10938C233.389 9.33073 233.93 9.57812 234.359 9.85156C234.802 10.125 235.167 10.3854 235.453 10.6328C235.44 10.6328 235.434 10.6784 235.434 10.7695C235.434 10.9648 235.447 11.3229 235.473 11.8438C235.512 12.3646 235.551 12.944 235.59 13.582C235.642 14.2201 235.681 14.8711 235.707 15.5352C235.746 16.1862 235.766 16.7526 235.766 17.2344C235.766 17.3125 235.74 17.4036 235.688 17.5078C235.635 17.599 235.505 17.6445 235.297 17.6445C235.18 17.6445 235.036 17.625 234.867 17.5859C234.594 17.5078 234.249 17.332 233.832 17.0586C233.415 16.7721 232.927 16.4792 232.367 16.1797C231.82 15.8672 231.202 15.5938 230.512 15.3594C229.835 15.112 229.092 14.9883 228.285 14.9883C227.217 14.9883 226.247 15.2161 225.375 15.6719C224.503 16.1146 223.76 16.7396 223.148 17.5469C222.536 18.3411 222.061 19.2917 221.723 20.3984C221.384 21.4922 221.215 22.6836 221.215 23.9727C221.215 25.1055 221.319 26.1667 221.527 27.1562C221.736 28.1458 222.048 29.0052 222.465 29.7344C222.895 30.4505 223.422 31.0169 224.047 31.4336C224.672 31.8503 225.408 32.0586 226.254 32.0586C227.074 32.0586 228.005 31.8828 229.047 31.5312L229.496 28.7773H225.766C226.052 27.2018 226.299 25.9648 226.508 25.0664C226.716 24.168 226.911 23.4909 227.094 23.0352C227.276 22.5794 227.465 22.293 227.66 22.1758C227.855 22.0586 228.083 22 228.344 22H238.617C238.917 22 239.132 22.0195 239.262 22.0586C239.405 22.0977 239.477 22.2344 239.477 22.4688C239.477 22.5859 239.464 22.7292 239.438 22.8984C239.411 23.0547 239.379 23.25 239.34 23.4844L238.363 26.7656C238.246 27.1823 238.148 27.5078 238.07 27.7422C237.992 27.9635 237.895 28.1328 237.777 28.25C237.66 28.3542 237.497 28.4193 237.289 28.4453C237.094 28.4583 236.807 28.4648 236.43 28.4648C236.221 28.4648 236.098 28.5495 236.059 28.7188C236.02 28.888 235.987 29.0638 235.961 29.2461C235.883 29.819 235.805 30.3919 235.727 30.9648C235.648 31.5247 235.57 32.0521 235.492 32.5469C235.427 33.0286 235.355 33.4583 235.277 33.8359C235.199 34.2005 235.121 34.4674 235.043 34.6367C234.158 35.1966 233.35 35.6914 232.621 36.1211C231.905 36.5378 231.189 36.8828 230.473 37.1562C229.757 37.4427 229.001 37.6576 228.207 37.8008C227.413 37.944 226.501 38.0156 225.473 38.0156C223.637 38.0156 221.918 37.6836 220.316 37.0195C218.715 36.3555 217.322 35.4245 216.137 34.2266C214.965 33.0156 214.04 31.5768 213.363 29.9102C212.686 28.2435 212.348 26.401 212.348 24.3828Z" fill="#CA9000"/>
<path fill-rule="evenodd" clip-rule="evenodd" d="M1.59499 20.8017C2.65832 21.8998 3.95999 22.4489 5.49999 22.4489C7.03998 22.4489 8.34164 21.8998 9.40497 20.8017C10.4683 19.7035 11 18.3591 11 16.7687C11 15.1782 10.4683 13.8339 9.40497 12.7357C8.34164 11.6375 7.03998 11.0884 5.49999 11.0884C3.95999 11.0884 2.65832 11.6375 1.59499 12.7357C0.531658 13.8339 0 15.1782 0 16.7687C0 18.3591 0.531658 19.7035 1.59499 20.8017ZM9.89998 7.68025C9.89998 9.27073 10.4317 10.6151 11.495 11.7132C12.5583 12.8114 13.86 13.3605 15.4 13.3605C16.94 13.3605 18.2417 12.8114 19.305 11.7132C20.3683 10.6151 20.9 9.27073 20.9 7.68025C20.9 6.08978 20.3683 4.74546 19.305 3.64728C18.2417 2.54909 16.94 2 15.4 2C13.86 2 12.5583 2.54909 11.495 3.64728C10.4317 4.74546 9.89998 6.08978 9.89998 7.68025ZM23.1 7.68025C23.1 9.27073 23.6317 10.6151 24.695 11.7132C25.7583 12.8114 27.06 13.3605 28.6 13.3605C30.14 13.3605 31.4417 12.8114 32.505 11.7132C33.5683 10.6151 34.1 9.27073 34.1 7.68025C34.1 6.08978 33.5683 4.74546 32.505 3.64728C31.4417 2.54909 30.14 2 28.6 2C27.06 2 25.7583 2.54909 24.695 3.64728C23.6317 4.74546 23.1 6.08978 23.1 7.68025ZM34.595 20.8017C35.6583 21.8998 36.96 22.4489 38.5 22.4489C40.04 22.4489 41.3417 21.8998 42.405 20.8017C43.4683 19.7035 44 18.3591 44 16.7687C44 15.1782 43.4683 13.8339 42.405 12.7357C41.3417 11.6375 40.04 11.0884 38.5 11.0884C36.96 11.0884 35.6583 11.6375 34.595 12.7357C33.5317 13.8339 33 15.1782 33 16.7687C33 18.3591 33.5317 19.7035 34.595 20.8017Z" fill="#CA9000"/>
<path d="M10.2251 46C8.57511 46 7.19095 45.3468 6.07262 44.0403C4.95429 42.7338 4.39512 41.1907 4.39512 39.4109C4.39512 37.4417 5.04595 35.7187 6.34762 34.2418C7.64928 32.765 8.94178 31.3071 10.2251 29.8681C11.2884 28.6941 12.2051 27.4161 12.9751 26.0339C13.7451 24.6517 14.6618 23.3547 15.7251 22.1429C16.5318 21.1583 17.4668 20.3441 18.5301 19.7004C19.5934 19.0566 20.7484 18.7347 21.9951 18.7347C23.2417 18.7347 24.3967 19.0377 25.4601 19.6436C26.5234 20.2495 27.4584 21.0447 28.2651 22.0293C29.2917 23.2411 30.1992 24.5475 30.9876 25.9487C31.7759 27.3498 32.7017 28.6563 33.7651 29.8681C35.0484 31.3071 36.3409 32.765 37.6425 34.2418C38.9442 35.7187 39.595 37.4417 39.595 39.4109C39.595 41.1907 39.0359 42.7338 37.9175 44.0403C36.7992 45.3468 35.415 46 33.7651 46C31.7851 46 29.8234 45.8296 27.8801 45.4888C25.9367 45.148 23.9751 44.9776 21.9951 44.9776C20.0151 44.9776 18.0534 45.148 16.1101 45.4888C14.1668 45.8296 12.2051 46 10.2251 46Z" fill="#124B3A"/>
</svg>
